<?xml version="1.0" encoding="UTF-8" standalone="no"?>
<!DOCTYPE svg PUBLIC "-//W3C//DTD SVG 1.1//EN"
 "http://www.w3.org/Graphics/SVG/1.1/DTD/svg11.dtd">
<!-- Generated by graphviz version 2.49.3 (20211023.0002)
 -->
<!-- Title: structs Pages: 1 -->
<svg width="5361pt" height="9917pt"
 viewBox="0.00 0.00 386.00 714.00" xmlns="http://www.w3.org/2000/svg" xmlns:xlink="http://www.w3.org/1999/xlink">
<g id="graph0" class="graph" transform="scale(13.89 13.89) rotate(0) translate(4 710)">
<title>structs</title>
<polygon fill="black" stroke="transparent" points="-4,4 -4,-710 382,-710 382,4 -4,4"/>
<!-- Ph -->
<g id="node1" class="node">
<title>Ph</title>
<polygon fill="black" stroke="white" points="160,-659.5 160,-705.5 214,-705.5 214,-659.5 160,-659.5"/>
<text text-anchor="middle" x="187" y="-690.3" font-family="Times,serif" font-size="14.00" fill="white">Ph</text>
<polyline fill="none" stroke="white" points="160,-682.5 214,-682.5 "/>
<text text-anchor="middle" x="187" y="-667.3" font-family="Times,serif" font-size="14.00" fill="white">ph::</text>
</g>
<!-- Types -->
<g id="node2" class="node">
<title>Types</title>
<polygon fill="black" stroke="white" points="33,-121.5 33,-167.5 87,-167.5 87,-121.5 33,-121.5"/>
<text text-anchor="middle" x="60" y="-152.3" font-family="Times,serif" font-size="14.00" fill="white">Types</text>
<polyline fill="none" stroke="white" points="33,-144.5 87,-144.5 "/>
<text text-anchor="middle" x="60" y="-129.3" font-family="Times,serif" font-size="14.00" fill="white">type::</text>
</g>
<!-- Ph&#45;&gt;Types -->
<g id="edge18" class="edge">
<title>Ph&#45;&gt;Types</title>
<path fill="none" stroke="white" d="M159.91,-677.01C118.2,-668.37 43,-645.21 43,-590.5 43,-590.5 43,-590.5 43,-236.5 43,-216.8 46.9,-195.11 50.96,-177.84"/>
<polygon fill="white" stroke="white" points="54.46,-178.27 53.48,-167.72 47.67,-176.58 54.46,-178.27"/>
<text text-anchor="middle" x="67.5" y="-409.8" font-family="Times,serif" font-size="14.00" fill="white"> &#160;exports</text>
</g>
<!-- Strings -->
<g id="node7" class="node">
<title>Strings</title>
<polygon fill="black" stroke="white" points="159,-571.5 159,-607.5 215,-607.5 215,-571.5 159,-571.5"/>
<text text-anchor="middle" x="187" y="-585.8" font-family="Times,serif" font-size="14.00" fill="white">Strings</text>
</g>
<!-- Ph&#45;&gt;Strings -->
<g id="edge15" class="edge">
<title>Ph&#45;&gt;Strings</title>
<path fill="none" stroke="white" d="M187,-659.47C187,-646.94 187,-631.13 187,-617.81"/>
<polygon fill="white" stroke="white" points="190.5,-617.77 187,-607.77 183.5,-617.77 190.5,-617.77"/>
<text text-anchor="middle" x="211.5" y="-629.8" font-family="Times,serif" font-size="14.00" fill="white"> &#160;exports</text>
</g>
<!-- Assert -->
<g id="node13" class="node">
<title>Assert</title>
<polygon fill="black" stroke="white" points="317,-395.5 317,-431.5 371,-431.5 371,-395.5 317,-395.5"/>
<text text-anchor="middle" x="344" y="-409.8" font-family="Times,serif" font-size="14.00" fill="white">Assert</text>
</g>
<!-- Ph&#45;&gt;Assert -->
<g id="edge16" class="edge">
<title>Ph&#45;&gt;Assert</title>
<path fill="none" stroke="white" d="M214.25,-663.25C222.97,-656.77 232.34,-649.06 240,-641 305.42,-572.21 332.84,-555.65 361,-465 363.43,-457.17 362.14,-448.72 359.42,-441"/>
<polygon fill="white" stroke="white" points="362.58,-439.5 355.37,-431.73 356.17,-442.3 362.58,-439.5"/>
<text text-anchor="middle" x="353.5" y="-541.8" font-family="Times,serif" font-size="14.00" fill="white"> &#160;exports</text>
</g>
<!-- Typelist -->
<g id="node14" class="node">
<title>Typelist</title>
<polygon fill="black" stroke="white" points="0,-0.5 0,-69.5 120,-69.5 120,-0.5 0,-0.5"/>
<text text-anchor="middle" x="60" y="-54.3" font-family="Times,serif" font-size="14.00" fill="white">Typelist</text>
<polyline fill="none" stroke="white" points="0,-46.5 120,-46.5 "/>
<text text-anchor="middle" x="60" y="-31.3" font-family="Times,serif" font-size="14.00" fill="white">+ common [...] &#45; T</text>
<polyline fill="none" stroke="white" points="0,-23.5 120,-23.5 "/>
<text text-anchor="middle" x="60" y="-8.3" font-family="Times,serif" font-size="14.00" fill="white">+ transform [...]</text>
</g>
<!-- Types&#45;&gt;Typelist -->
<g id="edge17" class="edge">
<title>Types&#45;&gt;Typelist</title>
<path fill="none" stroke="white" d="M60,-121.49C60,-109.52 60,-94.3 60,-80.01"/>
<polygon fill="white" stroke="white" points="63.5,-79.84 60,-69.84 56.5,-79.84 63.5,-79.84"/>
<text text-anchor="middle" x="84.5" y="-91.8" font-family="Times,serif" font-size="14.00" fill="white"> &#160;exports</text>
</g>
<!-- Memory -->
<g id="node3" class="node">
<title>Memory</title>
<polygon fill="black" stroke="white" points="134.5,-307.5 134.5,-343.5 199.5,-343.5 199.5,-307.5 134.5,-307.5"/>
<text text-anchor="middle" x="167" y="-321.8" font-family="Times,serif" font-size="14.00" fill="white">Memory</text>
</g>
<!-- Allocator -->
<g id="node4" class="node">
<title>Allocator</title>
<polygon fill="black" stroke="white" points="176.5,-219.5 176.5,-255.5 245.5,-255.5 245.5,-219.5 176.5,-219.5"/>
<text text-anchor="middle" x="211" y="-233.8" font-family="Times,serif" font-size="14.00" fill="white">Allocator</text>
</g>
<!-- Memory&#45;&gt;Allocator -->
<g id="edge3" class="edge">
<title>Memory&#45;&gt;Allocator</title>
<path fill="none" stroke="white" d="M177.01,-307.3C180.28,-301.53 183.87,-295.03 187,-289 190.96,-281.37 195.05,-272.97 198.71,-265.25"/>
<polygon fill="white" stroke="white" points="202,-266.48 203.07,-255.94 195.66,-263.51 202,-266.48"/>
<text text-anchor="middle" x="217.5" y="-277.8" font-family="Times,serif" font-size="14.00" fill="white"> &#160;exports</text>
</g>
<!-- Arena -->
<g id="node5" class="node">
<title>Arena</title>
<polygon fill="black" stroke="white" points="104,-219.5 104,-255.5 158,-255.5 158,-219.5 104,-219.5"/>
<text text-anchor="middle" x="131" y="-233.8" font-family="Times,serif" font-size="14.00" fill="white">Arena</text>
</g>
<!-- Memory&#45;&gt;Arena -->
<g id="edge1" class="edge">
<title>Memory&#45;&gt;Arena</title>
<path fill="none" stroke="white" d="M149.85,-307.36C145.3,-301.9 140.86,-295.56 138,-289 134.89,-281.86 133.09,-273.66 132.06,-265.98"/>
<polygon fill="white" stroke="white" points="135.54,-265.58 131.1,-255.96 128.57,-266.25 135.54,-265.58"/>
<text text-anchor="middle" x="162.5" y="-277.8" font-family="Times,serif" font-size="14.00" fill="white"> &#160;exports</text>
</g>
<!-- Pointer -->
<g id="node12" class="node">
<title>Pointer</title>
<polygon fill="black" stroke="white" points="192.5,-126.5 192.5,-162.5 249.5,-162.5 249.5,-126.5 192.5,-126.5"/>
<text text-anchor="middle" x="221" y="-140.8" font-family="Times,serif" font-size="14.00" fill="white">Pointer</text>
</g>
<!-- Allocator&#45;&gt;Pointer -->
<g id="edge6" class="edge">
<title>Allocator&#45;&gt;Pointer</title>
<path fill="none" stroke="white" d="M212.88,-219.38C214.32,-206.29 216.33,-187.98 217.99,-172.86"/>
<polygon fill="white" stroke="white" points="221.51,-172.86 219.13,-162.54 214.56,-172.1 221.51,-172.86"/>
<text text-anchor="middle" x="240.5" y="-189.8" font-family="Times,serif" font-size="14.00" fill="white"> &#160;exports</text>
</g>
<!-- Arena&#45;&gt;Types -->
<g id="edge2" class="edge">
<title>Arena&#45;&gt;Types</title>
<path fill="none" stroke="white" d="M103.9,-223.69C94.22,-217.95 84,-210.34 77,-201 71.84,-194.12 68.24,-185.66 65.72,-177.44"/>
<polygon fill="white" stroke="white" points="69.07,-176.44 63.15,-167.66 62.3,-178.22 69.07,-176.44"/>
<text text-anchor="middle" x="102" y="-189.8" font-family="Times,serif" font-size="14.00" fill="white"> &#160;imports</text>
</g>
<!-- Arena&#45;&gt;Pointer -->
<g id="edge4" class="edge">
<title>Arena&#45;&gt;Pointer</title>
<path fill="none" stroke="white" d="M139.19,-219.36C144.7,-208.96 152.65,-195.84 162,-186 168.47,-179.19 176.27,-172.87 184.05,-167.34"/>
<polygon fill="white" stroke="white" points="186.1,-170.18 192.41,-161.67 182.17,-164.38 186.1,-170.18"/>
<text text-anchor="middle" x="186.5" y="-189.8" font-family="Times,serif" font-size="14.00" fill="white"> &#160;exports</text>
</g>
<!-- String -->
<g id="node6" class="node">
<title>String</title>
<polygon fill="black" stroke="white" points="207,-483.5 207,-519.5 261,-519.5 261,-483.5 207,-483.5"/>
<text text-anchor="middle" x="234" y="-497.8" font-family="Times,serif" font-size="14.00" fill="white">String</text>
</g>
<!-- Vector -->
<g id="node8" class="node">
<title>Vector</title>
<polygon fill="black" stroke="white" points="140,-395.5 140,-431.5 194,-431.5 194,-395.5 140,-395.5"/>
<text text-anchor="middle" x="167" y="-409.8" font-family="Times,serif" font-size="14.00" fill="white">Vector</text>
</g>
<!-- String&#45;&gt;Vector -->
<g id="edge12" class="edge">
<title>String&#45;&gt;Vector</title>
<path fill="none" stroke="white" d="M206.78,-486.86C197.79,-481.18 188.44,-473.83 182,-465 177,-458.14 173.65,-449.62 171.42,-441.54"/>
<polygon fill="white" stroke="white" points="174.8,-440.66 169.14,-431.7 167.98,-442.23 174.8,-440.66"/>
<text text-anchor="middle" x="207" y="-453.8" font-family="Times,serif" font-size="14.00" fill="white"> &#160;imports</text>
</g>
<!-- Char -->
<g id="node10" class="node">
<title>Char</title>
<polygon fill="black" stroke="white" points="213,-395.5 213,-431.5 267,-431.5 267,-395.5 213,-395.5"/>
<text text-anchor="middle" x="240" y="-409.8" font-family="Times,serif" font-size="14.00" fill="white">Char</text>
</g>
<!-- String&#45;&gt;Char -->
<g id="edge11" class="edge">
<title>String&#45;&gt;Char</title>
<path fill="none" stroke="white" d="M235.21,-483.1C236.04,-471.25 237.15,-455.32 238.1,-441.79"/>
<polygon fill="white" stroke="white" points="241.6,-441.8 238.81,-431.58 234.62,-441.32 241.6,-441.8"/>
<text text-anchor="middle" x="261.5" y="-453.8" font-family="Times,serif" font-size="14.00" fill="white"> &#160;exports</text>
</g>
<!-- String&#45;&gt;Assert -->
<g id="edge13" class="edge">
<title>String&#45;&gt;Assert</title>
<path fill="none" stroke="white" d="M261.18,-484.69C270.57,-478.86 280.99,-471.97 290,-465 300.31,-457.02 310.94,-447.43 320.01,-438.75"/>
<polygon fill="white" stroke="white" points="322.5,-441.22 327.22,-431.74 317.62,-436.2 322.5,-441.22"/>
<text text-anchor="middle" x="332" y="-453.8" font-family="Times,serif" font-size="14.00" fill="white"> &#160;imports</text>
</g>
<!-- Strings&#45;&gt;String -->
<g id="edge8" class="edge">
<title>Strings&#45;&gt;String</title>
<path fill="none" stroke="white" d="M196.51,-571.1C203.18,-558.89 212.21,-542.37 219.74,-528.59"/>
<polygon fill="white" stroke="white" points="222.94,-530.04 224.66,-519.58 216.8,-526.68 222.94,-530.04"/>
<text text-anchor="middle" x="237.5" y="-541.8" font-family="Times,serif" font-size="14.00" fill="white"> &#160;exports</text>
</g>
<!-- Strings&#45;&gt;Vector -->
<g id="edge14" class="edge">
<title>Strings&#45;&gt;Vector</title>
<path fill="none" stroke="white" d="M174.17,-571.25C165.16,-557.99 153.87,-538.83 149,-520 142.17,-493.6 149.08,-462.8 156.23,-441.32"/>
<polygon fill="white" stroke="white" points="159.54,-442.46 159.59,-431.87 152.94,-440.12 159.54,-442.46"/>
<text text-anchor="middle" x="173.5" y="-497.8" font-family="Times,serif" font-size="14.00" fill="white"> &#160;exports</text>
</g>
<!-- Vector&#45;&gt;Memory -->
<g id="edge10" class="edge">
<title>Vector&#45;&gt;Memory</title>
<path fill="none" stroke="white" d="M167,-395.1C167,-383.25 167,-367.32 167,-353.79"/>
<polygon fill="white" stroke="white" points="170.5,-353.58 167,-343.58 163.5,-353.58 170.5,-353.58"/>
<text text-anchor="middle" x="192" y="-365.8" font-family="Times,serif" font-size="14.00" fill="white"> &#160;imports</text>
</g>
<!-- Range -->
<g id="node9" class="node">
<title>Range</title>
<polygon fill="black" stroke="white" points="233,-307.5 233,-343.5 287,-343.5 287,-307.5 233,-307.5"/>
<text text-anchor="middle" x="260" y="-321.8" font-family="Times,serif" font-size="14.00" fill="white">Range</text>
</g>
<!-- Vector&#45;&gt;Range -->
<g id="edge9" class="edge">
<title>Vector&#45;&gt;Range</title>
<path fill="none" stroke="white" d="M194.08,-396.68C202.78,-391.01 212.19,-384.21 220,-377 228.14,-369.49 235.96,-360.23 242.5,-351.71"/>
<polygon fill="white" stroke="white" points="245.43,-353.64 248.57,-343.52 239.8,-349.47 245.43,-353.64"/>
<text text-anchor="middle" x="257.5" y="-365.8" font-family="Times,serif" font-size="14.00" fill="white"> &#160;exports</text>
</g>
<!-- Iterator -->
<g id="node11" class="node">
<title>Iterator</title>
<polygon fill="black" stroke="white" points="264,-219.5 264,-255.5 322,-255.5 322,-219.5 264,-219.5"/>
<text text-anchor="middle" x="293" y="-233.8" font-family="Times,serif" font-size="14.00" fill="white">Iterator</text>
</g>
<!-- Range&#45;&gt;Iterator -->
<g id="edge7" class="edge">
<title>Range&#45;&gt;Iterator</title>
<path fill="none" stroke="white" d="M266.68,-307.1C271.32,-295.01 277.58,-278.68 282.83,-264.99"/>
<polygon fill="white" stroke="white" points="286.13,-266.17 286.44,-255.58 279.59,-263.67 286.13,-266.17"/>
<text text-anchor="middle" x="303" y="-277.8" font-family="Times,serif" font-size="14.00" fill="white"> &#160;imports</text>
</g>
<!-- Iterator&#45;&gt;Pointer -->
<g id="edge5" class="edge">
<title>Iterator&#45;&gt;Pointer</title>
<path fill="none" stroke="white" d="M286.88,-219.1C282.77,-208.86 276.71,-195.99 269,-186 264.42,-180.06 258.84,-174.39 253.13,-169.28"/>
<polygon fill="white" stroke="white" points="255.22,-166.47 245.33,-162.67 250.7,-171.81 255.22,-166.47"/>
<text text-anchor="middle" x="302.5" y="-189.8" font-family="Times,serif" font-size="14.00" fill="white"> &#160;exports</text>
</g>
</g>
</svg>
